<svg width="1457" height="833" viewBox="0 0 1457 833" fill="none" xmlns="http://www.w3.org/2000/svg">
<path d="M1092.81 8.04297C1163.15 -0.441812 1254.19 -0.443526 1327.65 1.67871C1364.38 2.73973 1396.7 4.33193 1419.85 5.6582C1431.43 6.32134 1440.7 6.91763 1447.09 7.34863C1450.28 7.56412 1452.75 7.73824 1454.42 7.8584C1455.25 7.91847 1455.89 7.96549 1456.32 7.99707C1456.38 8.00193 1456.44 8.00562 1456.5 8.00977V824.326C1456.44 824.331 1456.38 824.336 1456.31 824.342C1455.89 824.376 1455.25 824.427 1454.41 824.492C1452.74 824.623 1450.27 824.812 1447.07 825.047C1440.68 825.516 1431.4 826.165 1419.81 826.887C1396.64 828.33 1364.29 830.062 1327.54 831.217C1254.05 833.526 1163.02 833.525 1092.82 824.292C1019.45 814.644 966.387 789.857 913.008 767.372C859.628 744.886 805.961 724.715 731.502 724.412C655.929 724.104 601.333 744.314 547.016 766.972C492.699 789.629 438.687 814.72 364.187 824.292C293.943 833.317 202.913 833.318 129.427 831.061C92.6872 829.932 60.3394 828.239 37.1768 826.828C25.5957 826.123 16.311 825.489 9.92188 825.03C6.72728 824.801 4.25585 824.615 2.58398 824.487C1.74857 824.423 1.11262 824.374 0.685547 824.341C0.618704 824.336 0.556568 824.331 0.5 824.326V8.01074C0.555502 8.00671 0.616316 8.00277 0.681641 7.99805C1.10827 7.96719 1.74351 7.92098 2.57812 7.8623C4.24818 7.74489 6.71689 7.57483 9.9082 7.36426C16.2908 6.94312 25.5668 6.36083 37.1377 5.71289C60.28 4.41698 92.6038 2.86094 129.327 1.82422C202.781 -0.249425 293.813 -0.247641 364.191 8.04297C438.204 16.7617 492.541 39.5663 547.141 60.1504C601.741 80.7348 656.58 99.0867 731.502 98.8047C805.301 98.5269 859.212 80.2101 912.879 59.7832C966.544 39.3568 1019.94 16.8321 1092.81 8.04297Z" fill="url(#paint0_linear_197_8482)" stroke="black"/>
<defs>
<linearGradient id="paint0_linear_197_8482" x1="1457" y1="416.499" x2="0" y2="416.499" gradientUnits="userSpaceOnUse">
<stop stop-color="#BA1BBA"/>
<stop offset="1" stop-color="#3447F2"/>
</linearGradient>
</defs>
</svg>
